# xmcd
#
# Track frame offsets:
#	150
#	31698
#	59389
#	87587
#	111327
#	134371
#	161499
#	186458
#	216509
#	249641
#	272839
#	299842
#	325443
#
# Disc length: 4728 seconds
#
# Revision: 1
# Processed by: cddbd v1.5.2PL0 Copyright (c) Steve Scherf et al.
# Submitted via: audiograbber 1.83.01
#
DISCID=d612760d
DTITLE=Various Artist - Schranz and Loops 9 (the tracks)
DYEAR=2008
DGENRE=Hardtechno
TTITLE0=Robert Natus and Sorgenkint - Videogame Hero
TTITLE1=Wittekind and Kaoz - Milestone (Boriqua Tribez Remix)
TTITLE2=Felix Kröcher and Eric Sneo - Confusing
TTITLE3=Glenn Wilson - M1
TTITLE4=Bas Mooy - Straatsoldaat
TTITLE5=Frank Kvitta - Beatboost
TTITLE6=Kaoz and Ewe - Ratatatatt, das Telefon
TTITLE7=DJ Arcane and Dimar - Tornado (Matt M. Maddox Remix)
TTITLE8=Boris S. - Candyman
TTITLE9=Björn Bommersheim - Lonely in a room full of people
TTITLE10=Wehbba - Vagabundos Anthem (Original Mix)
TTITLE11=Adam Beyer - Swedish Silver (Joey Beltram Remix)
TTITLE12=Eric Sneo - Global warning
EXTD=
EXTT0=
EXTT1=
EXTT2=
EXTT3=
EXTT4=
EXTT5=
EXTT6=
EXTT7=
EXTT8=
EXTT9=
EXTT10=
EXTT11=
EXTT12=
PLAYORDER=
